<?xml version="1.0" encoding="UTF-8"?>
<svg version="1.1" xmlns="http://www.w3.org/2000/svg" width="5692" height="3200">
<path d="M0 0 C1.42070801 0.44400146 1.42070801 0.44400146 2.87011719 0.89697266 C46.46678502 14.76727726 85.99007138 37.73018163 121 67 C121.50692383 67.41523926 122.01384766 67.83047852 122.53613281 68.25830078 C130.3999922 74.70089384 137.74512262 81.56458119 144.9375 88.75 C145.73027344 89.54196777 146.52304688 90.33393555 147.33984375 91.14990234 C152.0887736 95.94395505 156.62654895 100.86208657 161 106 C161.53761963 106.62551758 162.07523926 107.25103516 162.62915039 107.89550781 C176.75987197 124.43195555 189.14215865 142.1563674 200 161 C200.5141748 161.89138672 201.02834961 162.78277344 201.55810547 163.70117188 C224.74044203 204.28592931 238.86228235 248.74462535 245 295 C245.11859375 295.87994629 245.2371875 296.75989258 245.359375 297.66650391 C248.84768597 325.0071793 248.79448909 354.70178236 245 382 C244.76603516 383.68416016 244.76603516 383.68416016 244.52734375 385.40234375 C235.32133385 449.29887174 210.74968138 511.23906931 169 561 C168.09218592 562.09874192 167.18464043 563.1977058 166.27734375 564.296875 C152.57071546 580.79215146 137.92862556 596.77049748 121 610 C120.07832031 610.77730469 119.15664062 611.55460937 118.20703125 612.35546875 C117.31371094 613.10441406 116.42039062 613.85335937 115.5 614.625 C114.7059375 615.29789063 113.911875 615.97078125 113.09375 616.6640625 C112.4028125 617.10492187 111.711875 617.54578125 111 618 C107.00919773 616.66973258 105.74811203 614.09450375 103.5 610.75 C98.42937739 603.43235135 92.87168835 596.68333039 87 590 C86.23816406 589.12601563 85.47632813 588.25203125 84.69140625 587.3515625 C72.41610413 573.47893943 58.85218203 561.96417627 44 551 C47.55177542 547.34974652 51.26900682 544.00507556 55.1875 540.75 C69.91748239 528.36803561 84.31639664 515.36647833 96 500 C96.40605469 499.47567383 96.81210938 498.95134766 97.23046875 498.41113281 C138.62569006 444.80245657 158.54814972 376.61103272 150.69140625 309.11328125 C143.31051502 252.1451208 118.97533643 199.42546955 79 158 C78.43345703 157.41154297 77.86691406 156.82308594 77.28320312 156.21679688 C69.91993483 148.60944234 62.4308363 141.43496485 54 135 C53.47422363 134.59249512 52.94844727 134.18499023 52.40673828 133.76513672 C-1.40454362 92.21702315 -69.9455514 72.13073558 -137.7109375 80.25 C-170.61545322 84.70230239 -201.70389668 94.36134983 -231 110 C-231.64598145 110.33966797 -232.29196289 110.67933594 -232.95751953 111.02929688 C-263.50594577 127.17943706 -292.15131257 151.41723231 -312.70556641 179.25683594 C-314.02587785 181.03484871 -315.3752701 182.78753671 -316.73046875 184.5390625 C-342.41610946 218.12518953 -358.31603509 259.3091523 -364.875 300.875 C-365.07355591 302.0959436 -365.07355591 302.0959436 -365.27612305 303.34155273 C-366.13537857 309.23209689 -365.90493964 314.28518108 -364 320 C-363.85680449 321.59993443 -363.77960474 323.20644312 -363.75 324.8125 C-363.72421875 325.64394531 -363.6984375 326.47539063 -363.671875 327.33203125 C-364 330 -364 330 -365.4921875 332.80859375 C-367.33200094 336.70270665 -367.45275255 340.03428377 -367.375 344.25 C-367.3608606 345.47251465 -367.3608606 345.47251465 -367.34643555 346.71972656 C-366.42378895 386.22811559 -355.50187041 425.20205788 -337 460 C-336.62649414 460.71365723 -336.25298828 461.42731445 -335.86816406 462.16259766 C-327.56105989 477.97099615 -317.67268136 492.46833605 -306 506 C-305.36578125 506.74507812 -304.7315625 507.49015625 -304.078125 508.2578125 C-292.2406303 521.79293241 -279.44330772 534.28836348 -265 545 C-263.32760837 546.32614546 -261.65886041 547.65696698 -260 549 C-261.53892614 553.28913609 -264.78859183 555.38980269 -268.3125 558 C-275.62786112 563.58915863 -282.3754763 569.61412621 -289 576 C-289.55606934 576.53415527 -290.11213867 577.06831055 -290.68505859 577.61865234 C-303.33842717 589.83632387 -314.24216002 603.36324003 -324 618 C-328.53429226 617.12231596 -331.25533189 614.493622 -334.625 611.5 C-335.47384766 610.76136719 -335.47384766 610.76136719 -336.33984375 610.0078125 C-338.23720856 608.35024768 -340.11927606 606.67642011 -342 605 C-342.77110107 604.3179248 -343.54220215 603.63584961 -344.33666992 602.93310547 C-357.47049796 591.23717524 -370.2264687 578.92578675 -381 565 C-381.9695694 563.83747129 -382.94391925 562.67892024 -383.921875 561.5234375 C-422.79820723 515.32677463 -447.65265765 457.03498827 -457.75 397.8125 C-457.94883789 396.65065186 -458.14767578 395.48880371 -458.35253906 394.29174805 C-461.3247847 375.90384589 -462.38360245 357.61135052 -462.3125 339 C-462.31034485 337.97608154 -462.3081897 336.95216309 -462.30596924 335.8972168 C-462.0299429 253.77858366 -433.15506933 173.77716448 -380 111 C-379.19433594 110.01 -378.38867188 109.02 -377.55859375 108 C-371.10373182 100.15647558 -364.09791678 92.88449656 -356.9375 85.6875 C-355.57298706 84.30921021 -355.57298706 84.30921021 -354.1809082 82.90307617 C-348.09307614 76.84260515 -341.70958545 71.35638032 -335 66 C-333.97262523 65.1364032 -332.94923433 64.26799184 -331.93359375 63.390625 C-281.74134422 20.34625451 -217.13998174 -5.394701 -152 -14 C-151.17274414 -14.11714355 -150.34548828 -14.23428711 -149.49316406 -14.35498047 C-99.91752531 -21.16682303 -47.4971434 -14.88349552 0 0 Z " fill="#00C2CB" transform="translate(1270,1213)"/>
<path d="M0 0 C40.92 0 81.84 0 124 0 C124 54.78 124 109.56 124 166 C172.84 166 221.68 166 272 166 C272 111.22 272 56.44 272 0 C312.92 0 353.84 0 396 0 C396 145.53 396 291.06 396 441 C355.08 441 314.16 441 272 441 C272 382.92 272 324.84 272 265 C223.16 265 174.32 265 124 265 C124 323.08 124 381.16 124 441 C83.08 441 42.16 441 0 441 C0 295.47 0 149.94 0 0 Z " fill="#00C2CB" transform="translate(3697,1290)"/>
<path d="M0 0 C40.92 0 81.84 0 124 0 C124.33 51.81 124.66 103.62 125 157 C127.31 153.7 129.62 150.4 132 147 C150.28246778 124.04337379 177.64275757 111.59693015 206.4621582 108.19628906 C212.58557058 107.72267448 218.73626399 107.75503322 224.875 107.75 C225.61265594 107.74932526 226.35031189 107.74865051 227.11032104 107.74795532 C260.79710983 107.79691269 292.50332834 118.59739449 318 141 C318.82886719 141.69609375 319.65773437 142.3921875 320.51171875 143.109375 C356.54085651 174.10461439 372.00218952 222.44684451 375.6875 268.4375 C378.1750961 316.16825016 371.5832134 368.72464174 342 408 C341.42894531 408.77859375 340.85789063 409.5571875 340.26953125 410.359375 C335.85849662 416.21383744 330.98926894 421.63611018 326 427 C325.34773438 427.72960938 324.69546875 428.45921875 324.0234375 429.2109375 C301.50077093 453.29888591 266.84684252 466.55737012 234.38354492 468.12646484 C199.96759017 469.12090763 166.75285925 462.11003623 140.84375 438.1171875 C134.59022121 432.12314915 130.07824566 426.25463665 125 419 C124.67 433.52 124.34 448.04 124 463 C83.08 463 42.16 463 0 463 C0 310.21 0 157.42 0 0 Z M142.3125 234.125 C126.85943605 250.29681111 123.54902657 271.67659796 123.78515625 293.1796875 C124.26801553 311.74427707 130.6753092 329.03412617 143.453125 342.60546875 C156.89124924 355.21955707 172.29337106 360.62356918 190.6328125 360.2734375 C208.00962531 359.49027905 222.12550205 351.49354761 234 339 C249.67828133 320.20977248 251.45284997 297.50695872 250 274 C248.36566854 257.16017961 240.12652988 239.85065167 227 229 C199.70184108 209.26444214 167.16532635 211.26889645 142.3125 234.125 Z " fill="#00C2CB" transform="translate(4590,1268)"/>
<path d="M0 0 C0.72461426 0.19335938 1.44922852 0.38671875 2.19580078 0.5859375 C28.96206907 8.02515768 50.09818192 23.28311703 66 46 C66.495 23.725 66.495 23.725 67 1 C107.59 1 148.18 1 190 1 C190 116.83 190 232.66 190 352 C149.41 352 108.82 352 67 352 C66.67 337.48 66.34 322.96 66 308 C63.36 311.3 60.72 314.6 58 318 C39.42799989 340.66413573 11.19723916 353.07370046 -17.51855469 356.48217773 C-57.3121902 360.41859851 -94.4284848 350.40676135 -125.75 325.5625 C-139.93655914 313.56172182 -150.76156404 300.04570456 -160 284 C-160.65742188 282.87335938 -161.31484375 281.74671875 -161.9921875 280.5859375 C-190.28919178 230.76339106 -192.16098056 164.86222015 -177.62304688 110.50073242 C-170.7054074 86.40833609 -159.3058546 64.0450412 -143 45 C-142.20464844 44.06414062 -141.40929688 43.12828125 -140.58984375 42.1640625 C-107.11048098 3.91834106 -49.23341 -13.29265949 0 0 Z M-41.125 122.5625 C-55.3410377 137.33734421 -60.10919629 157.43258889 -60.03515625 177.484375 C-59.48208557 199.60720239 -53.26385715 218.51938809 -37 234 C-24.45545723 245.48860482 -8.91120132 249.81892153 7.8203125 249.28125 C24.75068842 248.35482724 38.50939474 240.72452863 50.21875 228.7265625 C58.67491096 218.93693001 63.69297761 206.64248271 66 194 C66.13019531 193.29230469 66.26039063 192.58460938 66.39453125 191.85546875 C69.44243289 170.60143467 66.15654041 147.58438799 53.9921875 129.625 C43.42143864 115.69648386 29.22862094 107.57143752 12.08203125 104.47265625 C-8.26917273 102.02831461 -26.25874091 108.7597328 -41.125 122.5625 Z " fill="#00C2CB" transform="translate(2648,1379)"/>
<path d="M0 0 C40.59 0 81.18 0 123 0 C123.03738281 14.27507812 123.07476562 28.55015625 123.11328125 43.2578125 C123.14356191 52.30860341 123.1745893 61.35938159 123.20898438 70.41015625 C123.26342276 84.7716353 123.31483792 99.13307901 123.34643555 113.49462891 C123.36946446 123.95519832 123.40291703 134.41567458 123.44870156 144.87617004 C123.47256781 150.41099212 123.49133977 155.94572233 123.49761391 161.48059464 C123.50369467 166.69923839 123.52380188 171.91764725 123.55427551 177.13620377 C123.56300801 179.04279952 123.56678835 180.94942603 123.56500816 182.85604095 C123.55172146 203.66832256 126.56244042 221.36108523 141.0625 237.26171875 C153.84743893 249.60012489 169.44052885 251.60590958 186.33984375 251.3125 C193.1179627 251.04454603 198.77604054 249.8108204 205 247 C205.97066406 246.56429688 206.94132812 246.12859375 207.94140625 245.6796875 C218.34695617 240.49814836 224.63543139 233.1686599 230 223 C230.38027344 222.31550781 230.76054687 221.63101562 231.15234375 220.92578125 C237.78377147 207.78804709 237.44595278 192.343482 237.43237305 178.0078125 C237.44141161 176.05473215 237.45174388 174.10165742 237.46325684 172.14859009 C237.49060721 166.89762351 237.5000812 161.6467652 237.50611091 156.39573669 C237.5155523 150.88910716 237.54175994 145.38255669 237.56611633 139.87597656 C237.60962741 129.47131406 237.63826862 119.06666705 237.66143972 108.66194153 C237.69365774 94.58590753 237.7491053 80.50996572 237.80318546 66.43400192 C237.88765884 44.28936219 237.94131963 22.1447579 238 0 C278.92 0 319.84 0 362 0 C362 115.83 362 231.66 362 351 C321.08 351 280.16 351 238 351 C237.67 335.82 237.34 320.64 237 305 C234.36 308.3 231.72 311.6 229 315 C207.98977111 338.98042494 176.6963246 351.88486636 145.375 354.6875 C106.19750237 356.98923793 71.1016635 348.08571331 41.47265625 321.75390625 C12.10865568 293.62845755 0.54955763 252.01874588 -0.33045137 212.40000904 C-0.38294055 207.55772983 -0.36767361 202.71714473 -0.34057617 197.87475586 C-0.33972664 195.69375622 -0.34021136 193.51275574 -0.34190369 191.33175659 C-0.34275237 185.5007001 -0.32531267 179.6698348 -0.30418181 173.83882213 C-0.28522368 167.71169594 -0.28364969 161.58456371 -0.28010559 155.45741272 C-0.27084065 143.89489043 -0.24630331 132.33245486 -0.21605712 120.76997048 C-0.17601413 105.11724985 -0.1600133 89.46450432 -0.14255047 73.81174564 C-0.11447719 49.20776567 -0.05467099 24.60396857 0 0 Z " fill="#00C2CB" transform="translate(4159,1380)"/>
<path d="M0 0 C0.9175708 -0.00100708 1.8351416 -0.00201416 2.78051758 -0.00305176 C16.13805031 0.00687732 29.08630058 0.42167169 42.1875 3.25 C42.92709961 3.39985352 43.66669922 3.54970703 44.42871094 3.70410156 C72.51154694 9.44250319 99.66818009 21.01996944 121.1875 40.25 C122.15945313 41.09046875 123.13140625 41.9309375 124.1328125 42.796875 C156.38524278 71.07141933 173.91333739 112.93091433 177.1875 155.25 C177.45473397 161.16358549 177.43592364 167.07931873 177.39331055 172.99755859 C177.37487455 175.64300074 177.37280305 178.28809349 177.37304688 180.93359375 C177.3681353 182.65104464 177.36230856 184.36849321 177.35546875 186.0859375 C177.35435593 186.85908295 177.3532431 187.63222839 177.35209656 188.42880249 C177.30340302 194.14112679 176.76206691 199.5043309 176.1875 205.25 C99.6275 205.25 23.0675 205.25 -55.8125 205.25 C-51.42011779 231.53511752 -51.42011779 231.53511752 -34.875 251.1875 C-21.58121405 259.67116798 -7.72747786 262.21108256 7.8125 259.125 C14.03834606 257.54987588 18.95936943 254.92249097 24.1875 251.25 C25.074375 250.6725 25.96125 250.095 26.875 249.5 C31.64618741 244.8577636 35.22328512 239.17842975 38.1875 233.25 C81.7475 233.25 125.3075 233.25 170.1875 233.25 C165.58744138 256.25029309 156.47005817 278.19829454 141.1875 296.25 C140.26860947 297.36773242 139.35068961 298.48626334 138.43359375 299.60546875 C126.05655336 314.59309308 111.87908289 326.33101072 95.1875 336.25 C94.61483398 336.5912793 94.04216797 336.93255859 93.45214844 337.28417969 C56.1066193 359.1720529 9.5425471 364.78717193 -32.8125 358.25 C-33.59044922 358.13172852 -34.36839844 358.01345703 -35.16992188 357.89160156 C-61.15925049 353.74974992 -86.24739595 344.38803396 -107.8125 329.25 C-108.84375 328.53714844 -109.875 327.82429688 -110.9375 327.08984375 C-131.5567651 312.06355431 -147.14488624 292.75910162 -158.8125 270.25 C-159.12670898 269.6528418 -159.44091797 269.05568359 -159.76464844 268.44042969 C-183.42847106 222.90588093 -184.28201502 163.26372807 -169.7253418 114.88500977 C-156.38225024 72.99083364 -127.78428891 39.40245314 -88.8125 19.25 C-88.19938965 18.93047363 -87.5862793 18.61094727 -86.95458984 18.28173828 C-59.98259115 4.42263715 -29.98776855 0.02276061 0 0 Z M-42.19140625 114.1875 C-49.14592523 123.03565909 -54.8125 133.84292972 -54.8125 145.25 C-19.8325 145.25 15.1475 145.25 51.1875 145.25 C51.1875 132.39844396 48.76481788 122.99396456 40.1875 113.25 C27.75980052 101.18283105 13.76217259 97.82394667 -3.01660156 97.88647461 C-18.1657762 98.15759808 -31.63183738 102.84292721 -42.19140625 114.1875 Z " fill="#00C2CB" transform="translate(3470.8125,1375.75)"/>
<path d="M0 0 C0.9175708 -0.00100708 1.8351416 -0.00201416 2.78051758 -0.00305176 C16.13805031 0.00687732 29.08630058 0.42167169 42.1875 3.25 C42.92709961 3.39985352 43.66669922 3.54970703 44.42871094 3.70410156 C72.51154694 9.44250319 99.66818009 21.01996944 121.1875 40.25 C122.15945313 41.09046875 123.13140625 41.9309375 124.1328125 42.796875 C156.38524278 71.07141933 173.91333739 112.93091433 177.1875 155.25 C177.45473397 161.16358549 177.43592364 167.07931873 177.39331055 172.99755859 C177.37487455 175.64300074 177.37280305 178.28809349 177.37304688 180.93359375 C177.3681353 182.65104464 177.36230856 184.36849321 177.35546875 186.0859375 C177.35435593 186.85908295 177.3532431 187.63222839 177.35209656 188.42880249 C177.30340302 194.14112679 176.76206691 199.5043309 176.1875 205.25 C99.6275 205.25 23.0675 205.25 -55.8125 205.25 C-51.42011779 231.53511752 -51.42011779 231.53511752 -34.875 251.1875 C-21.58121405 259.67116798 -7.72747786 262.21108256 7.8125 259.125 C14.03834606 257.54987588 18.95936943 254.92249097 24.1875 251.25 C25.074375 250.6725 25.96125 250.095 26.875 249.5 C31.64618741 244.8577636 35.22328512 239.17842975 38.1875 233.25 C81.7475 233.25 125.3075 233.25 170.1875 233.25 C165.58744138 256.25029309 156.47005817 278.19829454 141.1875 296.25 C140.26860947 297.36773242 139.35068961 298.48626334 138.43359375 299.60546875 C126.05655336 314.59309308 111.87908289 326.33101072 95.1875 336.25 C94.61483398 336.5912793 94.04216797 336.93255859 93.45214844 337.28417969 C56.1066193 359.1720529 9.5425471 364.78717193 -32.8125 358.25 C-33.59044922 358.13172852 -34.36839844 358.01345703 -35.16992188 357.89160156 C-61.15925049 353.74974992 -86.24739595 344.38803396 -107.8125 329.25 C-108.84375 328.53714844 -109.875 327.82429688 -110.9375 327.08984375 C-131.5567651 312.06355431 -147.14488624 292.75910162 -158.8125 270.25 C-159.12670898 269.6528418 -159.44091797 269.05568359 -159.76464844 268.44042969 C-183.42847106 222.90588093 -184.28201502 163.26372807 -169.7253418 114.88500977 C-156.38225024 72.99083364 -127.78428891 39.40245314 -88.8125 19.25 C-88.19938965 18.93047363 -87.5862793 18.61094727 -86.95458984 18.28173828 C-59.98259115 4.42263715 -29.98776855 0.02276061 0 0 Z M-42.19140625 114.1875 C-49.14592523 123.03565909 -54.8125 133.84292972 -54.8125 145.25 C-19.8325 145.25 15.1475 145.25 51.1875 145.25 C51.1875 132.39844396 48.76481788 122.99396456 40.1875 113.25 C27.75980052 101.18283105 13.76217259 97.82394667 -3.01660156 97.88647461 C-18.1657762 98.15759808 -31.63183738 102.84292721 -42.19140625 114.1875 Z " fill="#00C2CB" transform="translate(2255.8125,1375.75)"/>
<path d="M0 0 C43.56 0 87.12 0 132 0 C141.15981766 31.75403455 150.30608585 63.50907792 159.32998657 95.30160522 C161.18071622 101.82139837 163.03209072 108.34100828 164.88354492 114.8605957 C166.77272964 121.51308184 168.66182351 128.16559366 170.55039978 134.81825256 C174.28056885 147.95646872 178.02013185 161.09196855 181.76803589 174.2251358 C183.25675385 179.44334346 184.74340652 184.66213983 186.22990036 189.88098145 C187.37885732 193.91410221 188.52923381 197.94680661 189.68292236 201.97857666 C190.7411239 205.67665096 191.79579366 209.37571295 192.84762001 213.07560539 C193.2281435 214.41158337 193.61003343 215.74717303 193.99339867 217.08233833 C194.51003194 218.88222929 195.02140623 220.68362733 195.5324707 222.48510742 C195.81806351 223.48539474 196.10365631 224.48568207 196.39790344 225.51628113 C197 228 197 228 197 231 C197.66 231 198.32 231 199 231 C199.10114105 230.43710266 199.2022821 229.87420532 199.30648804 229.29425049 C200.71423947 221.84351176 202.67823304 214.59392929 204.7265625 207.296875 C205.10627517 205.93401154 205.4856649 204.57105807 205.86476135 203.20802307 C206.89705489 199.49995981 207.93384891 195.79316833 208.97143173 192.08658218 C210.08168374 188.11730278 211.18768891 184.14684015 212.29418945 180.17651367 C214.19622511 173.35383673 216.10086943 166.53189259 218.00732422 159.71044922 C220.77567791 149.80497892 223.5398398 139.8983426 226.30291176 129.99139786 C229.61131041 118.12921201 232.9203833 106.26721561 236.2331543 94.40625 C240.70959036 78.37840133 245.18413844 62.35006427 249.63843346 46.31604576 C250.25515311 44.09628526 250.87213074 41.87659664 251.48921204 39.65693665 C251.6864471 38.94745849 251.88368216 38.23798033 252.08689404 37.50700283 C252.47563898 36.10865249 252.86439271 34.71030459 253.25315571 33.31195927 C254.18102859 29.97388794 255.10806926 26.63558963 256.03329468 23.29678345 C257.02956188 19.70257543 258.02819866 16.10903385 259.02734375 12.515625 C259.3177655 11.46495346 259.60818726 10.41428192 259.90740967 9.33177185 C260.3031015 7.91119225 260.3031015 7.91119225 260.70678711 6.46191406 C260.93418076 5.64209045 261.1615744 4.82226685 261.39585876 3.9776001 C262 2 262 2 263 0 C306.56 0 350.12 0 395 0 C391.62406015 11.25313283 391.62406015 11.25313283 390.15332031 15.59350586 C389.65480057 17.06848289 389.65480057 17.06848289 389.14620972 18.57325745 C388.79374176 19.60998093 388.4412738 20.64670441 388.078125 21.71484375 C387.70156769 22.82637314 387.32501038 23.93790253 386.93704224 25.08311462 C385.71011223 28.70195416 384.48025154 32.31978841 383.25 35.9375 C382.82616028 37.18573547 382.40232056 38.43397095 381.96563721 39.72003174 C376.21430773 56.65791897 370.39238512 73.56982252 364.4720459 90.44943237 C359.39208263 104.9364247 354.42576244 119.45989851 349.5 134 C343.94351091 150.40154891 338.31202879 166.77367508 332.58300781 183.11572266 C327.46761142 197.71444425 322.46348773 212.34898369 317.5 227 C311.9476748 243.38912221 306.32530408 259.75068236 300.59509277 276.07846069 C296.80078323 286.89321567 293.06214325 297.72491125 289.390625 308.58203125 C288.80933838 310.29971207 288.80933838 310.29971207 288.21630859 312.05209351 C286.31951259 317.66022555 284.42834312 323.2701749 282.54492188 328.8828125 C281.85819672 330.91801053 281.17135371 332.9531688 280.484375 334.98828125 C280.02130951 336.37742485 280.02130951 336.37742485 279.54888916 337.79463196 C279.2565741 338.65815781 278.96425903 339.52168365 278.66308594 340.41137695 C278.41298767 341.1566011 278.1628894 341.90182526 277.9052124 342.66963196 C276.79478323 345.52830762 275.37150133 348.25699734 274 351 C223.18 351 172.36 351 120 351 C114.72 335.49 109.44 319.98 104 304 C98.42878203 288.035378 98.42878203 288.035378 92.84765625 272.07421875 C88.28569913 259.01207871 83.85565613 245.90519537 79.41625977 232.80102539 C74.53726329 218.40396857 69.59289221 204.03233563 64.5625 189.6875 C58.5443736 172.52553035 52.67568544 155.31545775 46.84552002 138.08880615 C41.49166173 122.27465109 36.05924621 106.49106402 30.53393555 90.73605347 C24.54236551 73.6443265 18.70176788 56.50265324 12.89624023 39.34692383 C12.22256917 37.35755901 11.54882394 35.3682193 10.875 33.37890625 C10.55213516 32.42470291 10.22927032 31.47049957 9.8966217 30.48738098 C8.27267374 25.70056699 6.62755902 20.92242639 4.9453125 16.15576172 C4.61805176 15.22843735 4.29079102 14.30111298 3.95361328 13.34568787 C3.33260489 11.59173861 2.708726 9.83880219 2.08154297 8.08705139 C0 2.21670756 0 2.21670756 0 0 Z " fill="#00C2CB" transform="translate(2878,1380)"/>
<path d="M0 0 C40.92 0 81.84 0 124 0 C124 114.51 124 229.02 124 347 C169.21 347 214.42 347 261 347 C261 378.02 261 409.04 261 441 C174.87 441 88.74 441 0 441 C0 295.47 0 149.94 0 0 Z " fill="#00C2CB" transform="translate(1790,1290)"/>
<path d="M0 0 C26.0738879 22.41048276 42.28903508 52.28231941 45.38769531 86.64746094 C47.58390714 120.34180642 37.78785801 153.0696474 15.69628906 178.82324219 C13.01996447 181.8620206 10.23093627 184.76406121 7.38769531 187.64746094 C6.53691406 188.51113281 5.68613281 189.37480469 4.80957031 190.26464844 C-19.84901995 213.96347321 -53.14685291 223.47717631 -86.63574219 222.89355469 C-118.68459594 221.87006889 -146.809638 207.59338003 -169.61230469 185.64746094 C-170.31871094 185.01582031 -171.02511719 184.38417969 -171.75292969 183.73339844 C-192.16318133 164.89954835 -204.24928359 134.04797262 -205.77636719 106.71044922 C-207.08052429 71.97096446 -197.86912626 39.28018819 -173.98730469 13.27246094 C-172.20872931 11.38438823 -170.41165072 9.51590628 -168.61230469 7.64746094 C-168.0309375 7.00292969 -167.44957031 6.35839844 -166.85058594 5.69433594 C-161.27337503 -0.31837507 -154.3624299 -4.77173959 -147.61230469 -9.35253906 C-146.81179688 -9.91070313 -146.01128906 -10.46886719 -145.18652344 -11.04394531 C-101.51716215 -39.5104739 -39.15367596 -32.84545197 0 0 Z " fill="#333333" transform="translate(1242.6123046875,1454.3525390625)"/>
<path d="M0 0 C44.16611004 13.92222349 96.41219603 12.46507305 140.41503906 -1.20263672 C141.38038574 -1.50089355 142.34573242 -1.79915039 143.34033203 -2.10644531 C144.19191895 -2.3882666 145.04350586 -2.67008789 145.92089844 -2.96044922 C149.15620066 -3.3503927 150.56353064 -2.40477335 153.23876953 -0.62988281 C154.97326548 0.79723411 156.67952973 2.25902325 158.36376953 3.74511719 C159.38470703 4.55980469 160.40564453 5.37449219 161.45751953 6.21386719 C183.04877961 23.51605263 199.93461104 47.27162948 208.36376953 73.74511719 C208.36376953 74.40511719 208.36376953 75.06511719 208.36376953 75.74511719 C190.60173196 82.79135712 172.94658098 89.15703425 154.36376953 93.74511719 C153.41904785 93.97924316 152.47432617 94.21336914 151.50097656 94.45458984 C124.26304241 101.06958407 96.84110597 103.97539564 68.86376953 103.99511719 C67.37293854 103.99662781 67.37293854 103.99662781 65.85198975 103.99816895 C49.16369809 103.9867751 32.89484959 103.18097534 16.36376953 100.74511719 C15.35846191 100.60058105 14.3531543 100.45604492 13.31738281 100.30712891 C-16.2333612 95.93623262 -45.17188801 87.47611774 -72.63623047 75.74511719 C-64.78899083 46.97956476 -46.94503975 23.91776053 -24.63623047 4.74511719 C-23.78802734 3.90851563 -22.93982422 3.07191406 -22.06591797 2.20996094 C-14.42582497 -4.62051027 -9.02713502 -3.01891073 0 0 Z " fill="#00C2CB" transform="translate(1094.63623046875,1802.2548828125)"/>
<path d="M0 0 C8.91 0 17.82 0 27 0 C30.39374116 3.39374116 32.02555189 5.50154002 34.1796875 9.6015625 C34.77144775 10.71805176 35.36320801 11.83454102 35.97290039 12.98486328 C36.60697449 14.19822082 37.24100659 15.4116003 37.875 16.625 C38.54143007 17.88698209 39.20867943 19.14853184 39.87670898 20.40966797 C41.25079476 23.00474559 42.62177784 25.60142587 43.99072266 28.19921875 C46.97842445 33.86061737 50.02154563 39.49208254 53.0625 45.125 C54.2083716 47.25388565 55.35420481 49.38279197 56.5 51.51171875 C58.61006248 55.42810451 60.72642511 59.34095552 62.85084534 63.24957275 C63.80660454 65.00868044 64.76060768 66.76874186 65.71459961 68.52880859 C66.90507686 70.72479794 68.09838184 72.91925787 69.29516602 75.11181641 C72.82108494 81.62402082 76.03102817 88.21556931 79 95 C79.42667969 94.13503906 79.85335937 93.27007813 80.29296875 92.37890625 C88.91949033 74.96961984 97.87294391 57.7232734 107.2487793 40.70556641 C110.29002246 35.17485205 113.26753008 29.61458632 116.203125 24.02734375 C116.93244985 22.643428 117.66186065 21.25955755 118.39135742 19.87573242 C119.47290645 17.82371368 120.55181888 15.77052854 121.62246704 13.71279907 C122.61798228 11.79976016 123.62255838 9.89173194 124.62890625 7.984375 C125.20713135 6.87803711 125.78535645 5.77169922 126.38110352 4.63183594 C128 2 128 2 131 0 C139.91 0 148.82 0 158 0 C158 47.52 158 95.04 158 144 C149.75 144 141.5 144 133 144 C132.67 111.33 132.34 78.66 132 45 C127.38 53.91 122.76 62.82 118 72 C111.9375 83.125 111.9375 83.125 109.02734375 88.4140625 C105.00699544 95.77429024 101.17891257 103.23576573 97.36303711 110.70361328 C90.60472247 123.84566741 90.60472247 123.84566741 87.12109375 126.3515625 C84.37628355 127.19067575 81.93247466 127.33880864 79.0625 127.375 C78.04285156 127.40335938 77.02320312 127.43171875 75.97265625 127.4609375 C72.19973129 126.87591103 70.79415698 125.57480564 68 123 C66.27758789 120.38818359 66.27758789 120.38818359 64.72265625 117.3984375 C64.13403809 116.28178711 63.54541992 115.16513672 62.93896484 114.01464844 C62.31340102 112.80147124 61.68791476 111.58825405 61.0625 110.375 C60.4017778 109.11426641 59.73981099 107.85418438 59.07666016 106.59472656 C57.71248827 104.00198636 56.35330474 101.4067255 54.99755859 98.80957031 C52.00861794 93.0951908 48.94042774 87.42360352 45.875 81.75 C45.37492432 80.82106934 44.87484863 79.89213867 44.35961914 78.93505859 C38.26290768 67.61081671 32.12555555 56.30871793 26 45 C25.67 77.67 25.34 110.34 25 144 C16.75 144 8.5 144 0 144 C0 96.48 0 48.96 0 0 Z " fill="#333333" transform="translate(3754,1807)"/>
<path d="M0 0 C4.51436092 3.7882749 8.2073334 8.03797507 10.67578125 13.40625 C11.33320313 12.53613281 11.33320313 12.53613281 12.00390625 11.6484375 C17.9930548 4.2715594 25.29034323 -0.57568319 34.67578125 -2.59375 C46.61584963 -3.74071668 57.7854313 -3.36146406 67.78125 3.9453125 C75.2346711 10.65180227 78.37991295 19.70928937 79.67578125 29.40625 C79.9407482 34.98379383 79.90969635 40.55037355 79.87109375 46.1328125 C79.86735628 47.7327761 79.86451278 49.33274202 79.86251831 50.93270874 C79.85493959 55.11165868 79.83534171 59.29046611 79.81311035 63.46936035 C79.7925267 67.74648105 79.78349001 72.02362513 79.7734375 76.30078125 C79.75208944 84.66934302 79.7169554 93.03776227 79.67578125 101.40625 C71.09578125 101.40625 62.51578125 101.40625 53.67578125 101.40625 C53.66119873 99.29734375 53.64661621 97.1884375 53.6315918 95.015625 C53.58112279 88.02660325 53.51450636 81.03780143 53.44006634 74.04899597 C53.39545017 69.81409632 53.35617511 65.57929093 53.3293457 61.34423828 C53.3032249 57.25269196 53.26276143 53.16151008 53.21259499 49.07019043 C53.19598534 47.51384027 53.18443445 45.95742715 53.17816734 44.40100098 C53.48957207 31.10340306 53.48957207 31.10340306 47.23828125 19.90625 C42.01836591 17.70839091 37.25762037 17.65484858 31.67578125 18.40625 C26.74116806 20.69732041 24.32296157 23.70015165 21.67578125 28.40625 C20.47659876 31.9741259 20.51827009 35.45140962 20.47045898 39.19433594 C20.46055939 39.86791641 20.45065979 40.54149689 20.44046021 41.23548889 C20.40896467 43.45383229 20.38413528 45.67219707 20.359375 47.890625 C20.33879514 49.43191066 20.3177984 50.9731908 20.29640198 52.51446533 C20.24128785 56.56516038 20.19183171 60.61590547 20.14355469 64.66668701 C20.09326169 68.80257606 20.03761638 72.93839272 19.98242188 77.07421875 C19.87497071 85.18483621 19.77399175 93.29551538 19.67578125 101.40625 C11.09578125 101.40625 2.51578125 101.40625 -6.32421875 101.40625 C-6.33880127 99.231521 -6.35338379 97.05679199 -6.3684082 94.81616211 C-6.41883741 87.61559337 -6.48544706 80.41523899 -6.55993366 73.21488094 C-6.60458332 68.85103657 -6.64385121 64.48728439 -6.6706543 60.12329102 C-6.69674141 55.90856083 -6.73718165 51.69418645 -6.78740501 47.4796772 C-6.80403727 45.87505088 -6.81557417 44.27036307 -6.82183266 42.66566277 C-6.83151377 40.41076594 -6.85961881 38.15677192 -6.8918457 35.90209961 C-6.90850029 33.98016029 -6.90850029 33.98016029 -6.92549133 32.01939392 C-7.47859454 27.00734455 -8.6165252 22.80449573 -12.65234375 19.5 C-18.19621396 17.23057945 -24.40842177 17.2952675 -30 19.42578125 C-32.24040659 20.6394876 -34.29008932 21.87309512 -36.32421875 23.40625 C-36.84824783 23.7808284 -37.37227692 24.1554068 -37.91218567 24.54133606 C-40.04278869 27.35528662 -39.7636426 30.23896755 -39.7565918 33.6315918 C-39.76678345 34.36354767 -39.7769751 35.09550354 -39.78747559 35.84963989 C-39.81766307 38.26832679 -39.82688001 40.68661804 -39.8359375 43.10546875 C-39.85277998 44.78271304 -39.87092963 46.45994466 -39.89033508 48.13716125 C-39.93788828 52.55119879 -39.96766309 56.96518502 -39.99377441 61.37939453 C-40.0235532 65.88389215 -40.07009269 70.3882129 -40.11523438 74.89257812 C-40.20132812 83.73039671 -40.26709725 92.56819661 -40.32421875 101.40625 C-48.57421875 101.40625 -56.82421875 101.40625 -65.32421875 101.40625 C-65.32421875 67.74625 -65.32421875 34.08625 -65.32421875 -0.59375 C-58.72421875 -0.59375 -52.12421875 -0.59375 -45.32421875 -0.59375 C-44.00421875 2.37625 -42.68421875 5.34625 -41.32421875 8.40625 C-40.79054687 7.94734375 -40.256875 7.4884375 -39.70703125 7.015625 C-29.24482777 -1.60030728 -12.86232535 -7.98547915 0 0 Z " fill="#333333" transform="translate(4537.32421875,1849.59375)"/>
<path d="M0 0 C4.51436092 3.7882749 8.2073334 8.03797507 10.67578125 13.40625 C11.33320313 12.53613281 11.33320313 12.53613281 12.00390625 11.6484375 C17.9930548 4.2715594 25.29034323 -0.57568319 34.67578125 -2.59375 C46.61584963 -3.74071668 57.7854313 -3.36146406 67.78125 3.9453125 C75.2346711 10.65180227 78.37991295 19.70928937 79.67578125 29.40625 C79.9407482 34.98379383 79.90969635 40.55037355 79.87109375 46.1328125 C79.86735628 47.7327761 79.86451278 49.33274202 79.86251831 50.93270874 C79.85493959 55.11165868 79.83534171 59.29046611 79.81311035 63.46936035 C79.7925267 67.74648105 79.78349001 72.02362513 79.7734375 76.30078125 C79.75208944 84.66934302 79.7169554 93.03776227 79.67578125 101.40625 C71.09578125 101.40625 62.51578125 101.40625 53.67578125 101.40625 C53.66119873 99.29734375 53.64661621 97.1884375 53.6315918 95.015625 C53.58112279 88.02660325 53.51450636 81.03780143 53.44006634 74.04899597 C53.39545017 69.81409632 53.35617511 65.57929093 53.3293457 61.34423828 C53.3032249 57.25269196 53.26276143 53.16151008 53.21259499 49.07019043 C53.19598534 47.51384027 53.18443445 45.95742715 53.17816734 44.40100098 C53.48957207 31.10340306 53.48957207 31.10340306 47.23828125 19.90625 C42.01836591 17.70839091 37.25762037 17.65484858 31.67578125 18.40625 C26.74116806 20.69732041 24.32296157 23.70015165 21.67578125 28.40625 C20.47659876 31.9741259 20.51827009 35.45140962 20.47045898 39.19433594 C20.46055939 39.86791641 20.45065979 40.54149689 20.44046021 41.23548889 C20.40896467 43.45383229 20.38413528 45.67219707 20.359375 47.890625 C20.33879514 49.43191066 20.3177984 50.9731908 20.29640198 52.51446533 C20.24128785 56.56516038 20.19183171 60.61590547 20.14355469 64.66668701 C20.09326169 68.80257606 20.03761638 72.93839272 19.98242188 77.07421875 C19.87497071 85.18483621 19.77399175 93.29551538 19.67578125 101.40625 C11.09578125 101.40625 2.51578125 101.40625 -6.32421875 101.40625 C-6.33880127 99.231521 -6.35338379 97.05679199 -6.3684082 94.81616211 C-6.41883741 87.61559337 -6.48544706 80.41523899 -6.55993366 73.21488094 C-6.60458332 68.85103657 -6.64385121 64.48728439 -6.6706543 60.12329102 C-6.69674141 55.90856083 -6.73718165 51.69418645 -6.78740501 47.4796772 C-6.80403727 45.87505088 -6.81557417 44.27036307 -6.82183266 42.66566277 C-6.83151377 40.41076594 -6.85961881 38.15677192 -6.8918457 35.90209961 C-6.90850029 33.98016029 -6.90850029 33.98016029 -6.92549133 32.01939392 C-7.47859454 27.00734455 -8.6165252 22.80449573 -12.65234375 19.5 C-18.19621396 17.23057945 -24.40842177 17.2952675 -30 19.42578125 C-32.24040659 20.6394876 -34.29008932 21.87309512 -36.32421875 23.40625 C-36.84824783 23.7808284 -37.37227692 24.1554068 -37.91218567 24.54133606 C-40.04278869 27.35528662 -39.7636426 30.23896755 -39.7565918 33.6315918 C-39.76678345 34.36354767 -39.7769751 35.09550354 -39.78747559 35.84963989 C-39.81766307 38.26832679 -39.82688001 40.68661804 -39.8359375 43.10546875 C-39.85277998 44.78271304 -39.87092963 46.45994466 -39.89033508 48.13716125 C-39.93788828 52.55119879 -39.96766309 56.96518502 -39.99377441 61.37939453 C-40.0235532 65.88389215 -40.07009269 70.3882129 -40.11523438 74.89257812 C-40.20132812 83.73039671 -40.26709725 92.56819661 -40.32421875 101.40625 C-48.57421875 101.40625 -56.82421875 101.40625 -65.32421875 101.40625 C-65.32421875 67.74625 -65.32421875 34.08625 -65.32421875 -0.59375 C-58.72421875 -0.59375 -52.12421875 -0.59375 -45.32421875 -0.59375 C-44.00421875 2.37625 -42.68421875 5.34625 -41.32421875 8.40625 C-40.79054688 7.94734375 -40.256875 7.4884375 -39.70703125 7.015625 C-29.24482777 -1.60030728 -12.86232535 -7.98547915 0 0 Z " fill="#333333" transform="translate(2656.32421875,1849.59375)"/>
<path d="M0 0 C0.97839844 -0.02900391 1.95679687 -0.05800781 2.96484375 -0.08789062 C8.37042893 -0.13406185 12.68979623 0.37936499 17.765625 2.28515625 C25.00537861 4.94221194 32.11648321 4.98344383 39.75 5.0625 C41.1406607 5.09074171 42.53128801 5.12068015 43.921875 5.15234375 C47.28130634 5.2223319 50.64007222 5.2753808 54 5.3125 C54.08107583 7.24931161 54.13922475 9.1870934 54.1875 11.125 C54.23970703 12.74341797 54.23970703 12.74341797 54.29296875 14.39453125 C54 17.3125 54 17.3125 52.65698242 19.15356445 C50.30584673 20.79800841 48.1317916 21.06881423 45.3125 21.5 C44.31863281 21.65855469 43.32476562 21.81710937 42.30078125 21.98046875 C41.54152344 22.09003906 40.78226563 22.19960937 40 22.3125 C40.495 23.7975 40.495 23.7975 41 25.3125 C41.79175028 36.86426643 41.25801844 45.28485707 33.75 54.5625 C26.18174874 62.64494243 16.84935446 66.29033931 5.84375 66.71875 C2.63523669 66.78625585 -0.5721636 66.81310136 -3.78125 66.83984375 C-4.8125 66.86175781 -5.84375 66.88367187 -6.90625 66.90625 C-8.30327148 66.91688477 -8.30327148 66.91688477 -9.72851562 66.92773438 C-10.47810547 67.05470703 -11.22769531 67.18167969 -12 67.3125 C-14.33391203 70.09364056 -14.33391203 70.09364056 -13.625 73 C-13.41875 73.763125 -13.2125 74.52625 -13 75.3125 C-8.7069555 76.92006335 -4.98663198 77.6099287 -0.4140625 77.8046875 C0.83947021 77.86760986 2.09300293 77.93053223 3.38452148 77.99536133 C4.70137939 78.05876709 6.0182373 78.12217285 7.375 78.1875 C37.35520421 79.86417684 37.35520421 79.86417684 46 88.3125 C51.21168262 95.64446343 51.71455882 102.54384248 51 111.3125 C48.71191192 120.39593401 41.83519877 127.5891727 34.37890625 132.9296875 C18.95279481 141.89658972 -1.31817401 142.80181398 -18.60546875 139.62890625 C-28.55535866 136.96750395 -36.98216366 132.70355673 -42.94140625 124.14453125 C-45.94324758 118.94946267 -45.40865349 113.11846376 -45 107.3125 C-43.08272535 101.22233348 -38.34697239 97.07716031 -32.77734375 94.140625 C-31.89755859 93.73070312 -31.89755859 93.73070312 -31 93.3125 C-31.804375 92.384375 -32.60875 91.45625 -33.4375 90.5 C-37.14765603 86.21905073 -37.28660449 82.29821026 -37.21484375 76.8125 C-36.69338524 70.74461917 -33.29965859 67.2896842 -29 63.3125 C-27.99645603 62.31605658 -26.99564908 61.31683207 -26 60.3125 C-26.77923828 59.69375 -26.77923828 59.69375 -27.57421875 59.0625 C-35.81557222 52.23786718 -39.54821263 46.38792588 -40.84375 35.625 C-41.24342515 27.15188679 -39.49448019 19.86567271 -34 13.3125 C-24.30492928 2.87018074 -13.76989244 0.13189552 0 0 Z M-14.3125 23.8125 C-17.2120699 28.10815911 -17.63134491 32.25272153 -17 37.3125 C-15.62376569 41.89718417 -13.71211308 44.70644632 -10.0625 47.8125 C-3.81990495 50.85272486 4.15097168 50.26217611 10.5625 48.125 C13.86430503 45.66981164 16.15994189 42.99261621 18 39.3125 C18.40435212 34.48360257 18.6440172 29.90559519 16.8125 25.375 C13.41913218 21.51358145 10.18477357 18.45815157 4.953125 18.109375 C3.73109375 18.09390625 2.5090625 18.0784375 1.25 18.0625 C-0.56757813 18.02382812 -0.56757813 18.02382812 -2.421875 17.984375 C-7.57307374 18.45675567 -10.81048993 20.02654317 -14.3125 23.8125 Z M-22 104.3125 C-22.99686463 107.13966801 -23.44116317 109.32570611 -23 112.3125 C-20.19928308 117.10082247 -17.63713369 118.83879719 -12.34790039 120.70825195 C-7.99317586 121.82896977 -3.66121823 121.79801776 0.8125 121.75 C1.78429199 121.74315186 2.75608398 121.73630371 3.75732422 121.72924805 C12.12667946 121.54181156 19.17451523 120.6041962 25.6875 115 C27.41142536 111.47005759 27.56443495 109.19299031 27 105.3125 C24.34166683 101.52948741 21.40464202 100.4136605 17 99.3125 C10.13355004 98.25974909 3.31569767 97.9931222 -3.625 97.875 C-4.73101562 97.82923828 -5.83703125 97.78347656 -6.9765625 97.73632812 C-14.31397934 97.6349095 -17.64933368 98.21861254 -22 104.3125 Z " fill="#333333" transform="translate(4297,1846.6875)"/>
<path d="M0 0 C1.68945312 1.30434033 3.36403822 2.62916646 5 4 C4.39118094 7.98631526 3.1478051 11.07395231 1.25 14.625 C0.76015625 15.56601563 0.2703125 16.50703125 -0.234375 17.4765625 C-2.22456563 20.32094999 -3.85559778 21.56579773 -7 23 C-12.78565467 22.19000835 -17.439213 19.23813562 -22.44921875 16.33984375 C-29.50024065 12.63616762 -40.07263719 12.68221692 -47.6875 14.71875 C-51.80377947 16.65215399 -54.83706108 19.02019239 -57 23 C-58.13681747 27.71305577 -58.40770867 31.64946502 -57 36.3125 C-51.0823414 44.26435375 -41.73526994 46.45821803 -32.75 49.4375 C-2.93188239 59.34978015 -2.93188239 59.34978015 4.375 73 C9.69527867 85.14718492 8.98752699 97.50682069 5 110 C0.00280622 122.13333793 -9.04934923 129.8178182 -20.68359375 135.25390625 C-36.0873643 141.12493168 -56.11070369 139.84355851 -70.984375 133.265625 C-78.50381984 129.78555135 -85.22702275 126.07681816 -91 120 C-89.65253552 116.41959438 -88.06917169 113.1690111 -86.125 109.875 C-85.38636719 108.60269531 -85.38636719 108.60269531 -84.6328125 107.3046875 C-82.8678657 104.81349465 -81.73267505 103.3806198 -79 102 C-73.48931759 102.11574362 -70.08445546 103.85298326 -65.5625 106.875 C-54.52088349 113.90771791 -44.12355665 116.14905942 -31.07421875 113.37890625 C-26.36765081 111.59911165 -23.20386545 108.92697255 -20.8203125 104.4765625 C-18.93134684 98.77368523 -18.52596565 92.37007046 -20.96875 86.78515625 C-27.74667728 77.78075867 -41.31324395 75.56046083 -51.5234375 72.40234375 C-63.74346053 68.60230751 -74.87156292 63.51955893 -81.22265625 51.73046875 C-85.95581586 41.50073669 -87.05173689 28.84861194 -83.375 18.0625 C-78.38005313 6.41344559 -71.02115204 -1.34763928 -59.6875 -6.95703125 C-40.12982821 -14.54699981 -17.38130467 -10.84873379 0 0 Z " fill="#333333" transform="translate(2511,1815)"/>
<path d="M0 0 C0.85142578 -0.02449219 1.70285156 -0.04898437 2.58007812 -0.07421875 C11.9967603 -0.11725005 18.69147496 3.29856839 25.4765625 9.66796875 C36.9264034 21.09166846 39.44824162 36.88391412 39.5625 52.4375 C39.42438378 69.28910236 35.50635946 83.7131862 23.62109375 96.1796875 C14.98979369 103.9658683 6.29049454 106.73384219 -5.125 106.75 C-6.47368164 106.78673828 -6.47368164 106.78673828 -7.84960938 106.82421875 C-17.30339662 106.86523301 -23.02586696 103.56608869 -30.8125 98.375 C-30.8125 111.575 -30.8125 124.775 -30.8125 138.375 C-39.0625 138.375 -47.3125 138.375 -55.8125 138.375 C-55.8125 93.495 -55.8125 48.615 -55.8125 2.375 C-49.2125 2.375 -42.6125 2.375 -35.8125 2.375 C-32.86066899 5.32683101 -32.72586012 8.33011947 -31.8125 12.375 C-30.636875 11.570625 -30.636875 11.570625 -29.4375 10.75 C-26.59461339 8.86372452 -23.71695545 7.04005714 -20.8125 5.25 C-20.008125 4.75242187 -19.20375 4.25484375 -18.375 3.7421875 C-12.23742889 0.46756877 -6.82167508 0.01018921 0 0 Z M-26.12109375 27.65625 C-26.67925781 28.2234375 -27.23742188 28.790625 -27.8125 29.375 C-28.33405167 29.81486237 -28.85560333 30.25472473 -29.39295959 30.70791626 C-31.21201822 32.8441873 -31.19723766 33.98697951 -31.21655273 36.76708984 C-31.22923691 37.65165863 -31.24192108 38.53622742 -31.25498962 39.44760132 C-31.25205399 40.40075226 -31.24911835 41.3539032 -31.24609375 42.3359375 C-31.2513356 43.31865631 -31.25657745 44.30137512 -31.26197815 45.31387329 C-31.26840351 47.39348404 -31.26705473 49.47313111 -31.25854492 51.55273438 C-31.25005043 54.73113022 -31.2787647 57.90772001 -31.31054688 61.0859375 C-31.31215937 63.10677029 -31.31158042 65.12760627 -31.30859375 67.1484375 C-31.31982773 68.09753998 -31.33106171 69.04664246 -31.34263611 70.02450562 C-31.29727941 74.33185802 -31.2271995 76.71462494 -28.89331055 80.43115234 C-23.84545121 85.14675202 -18.18403053 87.04111713 -11.33203125 87.47265625 C-5.31977186 87.23962294 0.40012766 85.155818 4.84375 80.99609375 C13.66799835 70.35056158 13.81593864 56.45163875 12.65625 43.33984375 C11.76463732 35.79828649 10.32915496 29.43015426 5 23.78125 C-5.09493196 15.94897521 -17.60911458 19.552988 -26.12109375 27.65625 Z " fill="#333333" transform="translate(2814.8125,1845.625)"/>
<path d="M0 0 C1.52004639 0.01135986 1.52004639 0.01135986 3.07080078 0.02294922 C10.19654246 0.18043052 16.27333058 0.85478091 22.5625 4.4375 C23.36558594 4.88480469 24.16867187 5.33210938 24.99609375 5.79296875 C34.64381835 11.70200204 40.73248018 20.41919459 43.8125 31.3125 C45.41414114 38.83258649 46.36460333 46.90143154 44.5625 54.4375 C41.79828753 57.20171247 40.14965707 56.71217121 36.27685547 56.75634766 C35.63282776 56.76639328 34.98880005 56.7764389 34.32525635 56.78678894 C32.19340927 56.81771583 30.06168829 56.83468194 27.9296875 56.8515625 C26.45279854 56.87026656 24.97592035 56.8898394 23.49905396 56.9102478 C19.60945983 56.96165576 15.71983102 57.00123485 11.83007812 57.03839111 C7.86189128 57.07837667 3.89384978 57.12949378 -0.07421875 57.1796875 C-7.86187959 57.27654926 -15.64961052 57.36092095 -23.4375 57.4375 C-22.99987386 59.66714763 -22.55108098 61.89460521 -22.09765625 64.12109375 C-21.84894775 65.36173584 -21.60023926 66.60237793 -21.34399414 67.88061523 C-19.79937546 73.94136115 -17.29772109 78.35505833 -12.2109375 82.05859375 C-4.40788054 86.43078281 4.28986017 87.58880122 12.97265625 85.390625 C15.156994 84.58673599 17.16109506 83.69512252 19.24609375 82.671875 C20.23464355 82.18750977 20.23464355 82.18750977 21.24316406 81.69335938 C22.55938452 81.0336479 23.86544554 80.35317613 25.15917969 79.65039062 C28.32284542 78.03270177 30.19766836 77.38288717 33.74609375 77.9140625 C37.05236603 79.70247608 38.70161035 81.55561392 40.9375 84.5625 C41.62585937 85.47257812 42.31421875 86.38265625 43.0234375 87.3203125 C43.53132813 88.01898437 44.03921875 88.71765625 44.5625 89.4375 C37.57357089 98.63345935 28.31945381 103.98225633 16.90673828 106.12402344 C0.41327614 108.32956451 -15.73202055 107.89718482 -29.546875 97.93359375 C-40.90932355 88.94223467 -47.34720069 76.64061584 -49.4375 62.4375 C-51.0100152 44.2944319 -48.59779557 28.85031393 -36.78125 14.4140625 C-26.87657367 3.71514325 -14.2244239 -0.14893447 0 0 Z M-17.75 26.6875 C-21.18309703 31.02798235 -23.4375 35.82030267 -23.4375 41.4375 C-8.5875 41.4375 6.2625 41.4375 21.5625 41.4375 C21.5625 34.06591204 20.91294624 29.95546856 15.84375 24.6328125 C9.8562505 19.33032353 4.99888776 19.08252948 -2.91796875 19.1640625 C-9.39491628 19.66726597 -13.35295823 22.01229987 -17.75 26.6875 Z " fill="#333333" transform="translate(4682.4375,1846.5625)"/>
<path d="M0 0 C1.52004639 0.01135986 1.52004639 0.01135986 3.07080078 0.02294922 C10.19654246 0.18043052 16.27333058 0.85478091 22.5625 4.4375 C23.36558594 4.88480469 24.16867187 5.33210938 24.99609375 5.79296875 C34.64381835 11.70200204 40.73248018 20.41919459 43.8125 31.3125 C45.41414114 38.83258649 46.36460333 46.90143154 44.5625 54.4375 C41.79828753 57.20171247 40.14965707 56.71217121 36.27685547 56.75634766 C35.63282776 56.76639328 34.98880005 56.7764389 34.32525635 56.78678894 C32.19340927 56.81771583 30.06168829 56.83468194 27.9296875 56.8515625 C26.45279854 56.87026656 24.97592035 56.8898394 23.49905396 56.9102478 C19.60945983 56.96165576 15.71983102 57.00123485 11.83007812 57.03839111 C7.86189128 57.07837667 3.89384978 57.12949378 -0.07421875 57.1796875 C-7.86187959 57.27654926 -15.64961052 57.36092095 -23.4375 57.4375 C-22.99987386 59.66714763 -22.55108098 61.89460521 -22.09765625 64.12109375 C-21.84894775 65.36173584 -21.60023926 66.60237793 -21.34399414 67.88061523 C-19.79937546 73.94136115 -17.29772109 78.35505833 -12.2109375 82.05859375 C-4.40788054 86.43078281 4.28986017 87.58880122 12.97265625 85.390625 C15.156994 84.58673599 17.16109506 83.69512252 19.24609375 82.671875 C20.23464355 82.18750977 20.23464355 82.18750977 21.24316406 81.69335938 C22.55938452 81.0336479 23.86544554 80.35317613 25.15917969 79.65039062 C28.32284542 78.03270177 30.19766836 77.38288717 33.74609375 77.9140625 C37.05236603 79.70247608 38.70161035 81.55561392 40.9375 84.5625 C41.62585937 85.47257812 42.31421875 86.38265625 43.0234375 87.3203125 C43.53132813 88.01898437 44.03921875 88.71765625 44.5625 89.4375 C37.57357089 98.63345935 28.31945381 103.98225633 16.90673828 106.12402344 C0.41327614 108.32956451 -15.73202055 107.89718482 -29.546875 97.93359375 C-40.90932355 88.94223467 -47.34720069 76.64061584 -49.4375 62.4375 C-51.0100152 44.2944319 -48.59779557 28.85031393 -36.78125 14.4140625 C-26.87657367 3.71514325 -14.2244239 -0.14893447 0 0 Z M-17.75 26.6875 C-21.18309703 31.02798235 -23.4375 35.82030267 -23.4375 41.4375 C-8.5875 41.4375 6.2625 41.4375 21.5625 41.4375 C21.5625 34.06591204 20.91294624 29.95546856 15.84375 24.6328125 C9.8562505 19.33032353 4.99888776 19.08252948 -2.91796875 19.1640625 C-9.39491628 19.66726597 -13.35295823 22.01229987 -17.75 26.6875 Z " fill="#333333" transform="translate(4407.4375,1846.5625)"/>
<path d="M0 0 C1.52004639 0.01135986 1.52004639 0.01135986 3.07080078 0.02294922 C10.19654246 0.18043052 16.27333058 0.85478091 22.5625 4.4375 C23.36558594 4.88480469 24.16867188 5.33210938 24.99609375 5.79296875 C34.64381835 11.70200204 40.73248018 20.41919459 43.8125 31.3125 C45.41414114 38.83258649 46.36460333 46.90143154 44.5625 54.4375 C41.79828753 57.20171247 40.14965707 56.71217121 36.27685547 56.75634766 C35.63282776 56.76639328 34.98880005 56.7764389 34.32525635 56.78678894 C32.19340927 56.81771583 30.06168829 56.83468194 27.9296875 56.8515625 C26.45279854 56.87026656 24.97592035 56.8898394 23.49905396 56.9102478 C19.60945983 56.96165576 15.71983102 57.00123485 11.83007812 57.03839111 C7.86189128 57.07837667 3.89384978 57.12949378 -0.07421875 57.1796875 C-7.86187959 57.27654926 -15.64961052 57.36092095 -23.4375 57.4375 C-22.99987386 59.66714763 -22.55108098 61.89460521 -22.09765625 64.12109375 C-21.84894775 65.36173584 -21.60023926 66.60237793 -21.34399414 67.88061523 C-19.79937546 73.94136115 -17.29772109 78.35505833 -12.2109375 82.05859375 C-4.40788054 86.43078281 4.28986017 87.58880122 12.97265625 85.390625 C15.156994 84.58673599 17.16109506 83.69512252 19.24609375 82.671875 C20.23464355 82.18750977 20.23464355 82.18750977 21.24316406 81.69335938 C22.55938452 81.0336479 23.86544554 80.35317613 25.15917969 79.65039062 C28.32284542 78.03270177 30.19766836 77.38288717 33.74609375 77.9140625 C37.05236603 79.70247608 38.70161035 81.55561392 40.9375 84.5625 C41.62585937 85.47257812 42.31421875 86.38265625 43.0234375 87.3203125 C43.53132813 88.01898437 44.03921875 88.71765625 44.5625 89.4375 C37.57357089 98.63345935 28.31945381 103.98225633 16.90673828 106.12402344 C0.41327614 108.32956451 -15.73202055 107.89718482 -29.546875 97.93359375 C-40.90932355 88.94223467 -47.34720069 76.64061584 -49.4375 62.4375 C-51.0100152 44.2944319 -48.59779557 28.85031393 -36.78125 14.4140625 C-26.87657367 3.71514325 -14.2244239 -0.14893447 0 0 Z M-17.75 26.6875 C-21.18309703 31.02798235 -23.4375 35.82030267 -23.4375 41.4375 C-8.5875 41.4375 6.2625 41.4375 21.5625 41.4375 C21.5625 34.06591204 20.91294624 29.95546856 15.84375 24.6328125 C9.8562505 19.33032353 4.99888776 19.08252948 -2.91796875 19.1640625 C-9.39491628 19.66726597 -13.35295823 22.01229987 -17.75 26.6875 Z " fill="#333333" transform="translate(3649.4375,1846.5625)"/>
<path d="M0 0 C1.52004639 0.01135986 1.52004639 0.01135986 3.07080078 0.02294922 C10.19654246 0.18043052 16.27333058 0.85478091 22.5625 4.4375 C23.36558594 4.88480469 24.16867188 5.33210938 24.99609375 5.79296875 C34.64381835 11.70200204 40.73248018 20.41919459 43.8125 31.3125 C45.41414114 38.83258649 46.36460333 46.90143154 44.5625 54.4375 C41.79828753 57.20171247 40.14965707 56.71217121 36.27685547 56.75634766 C35.63282776 56.76639328 34.98880005 56.7764389 34.32525635 56.78678894 C32.19340927 56.81771583 30.06168829 56.83468194 27.9296875 56.8515625 C26.45279854 56.87026656 24.97592035 56.8898394 23.49905396 56.9102478 C19.60945983 56.96165576 15.71983102 57.00123485 11.83007812 57.03839111 C7.86189128 57.07837667 3.89384978 57.12949378 -0.07421875 57.1796875 C-7.86187959 57.27654926 -15.64961052 57.36092095 -23.4375 57.4375 C-22.99987386 59.66714763 -22.55108098 61.89460521 -22.09765625 64.12109375 C-21.84894775 65.36173584 -21.60023926 66.60237793 -21.34399414 67.88061523 C-19.79937546 73.94136115 -17.29772109 78.35505833 -12.2109375 82.05859375 C-4.40788054 86.43078281 4.28986017 87.58880122 12.97265625 85.390625 C15.156994 84.58673599 17.16109506 83.69512252 19.24609375 82.671875 C20.23464355 82.18750977 20.23464355 82.18750977 21.24316406 81.69335938 C22.55938452 81.0336479 23.86544554 80.35317613 25.15917969 79.65039062 C28.32284542 78.03270177 30.19766836 77.38288717 33.74609375 77.9140625 C37.05236603 79.70247608 38.70161035 81.55561392 40.9375 84.5625 C41.62585937 85.47257812 42.31421875 86.38265625 43.0234375 87.3203125 C43.53132813 88.01898437 44.03921875 88.71765625 44.5625 89.4375 C37.57357089 98.63345935 28.31945381 103.98225633 16.90673828 106.12402344 C0.41327614 108.32956451 -15.73202055 107.89718482 -29.546875 97.93359375 C-40.90932355 88.94223467 -47.34720069 76.64061584 -49.4375 62.4375 C-51.0100152 44.2944319 -48.59779557 28.85031393 -36.78125 14.4140625 C-26.87657367 3.71514325 -14.2244239 -0.14893447 0 0 Z M-17.75 26.6875 C-21.18309703 31.02798235 -23.4375 35.82030267 -23.4375 41.4375 C-8.5875 41.4375 6.2625 41.4375 21.5625 41.4375 C21.5625 34.06591204 20.91294624 29.95546856 15.84375 24.6328125 C9.8562505 19.33032353 4.99888776 19.08252948 -2.91796875 19.1640625 C-9.39491628 19.66726597 -13.35295823 22.01229987 -17.75 26.6875 Z " fill="#333333" transform="translate(3338.4375,1846.5625)"/>
<path d="M0 0 C9.36002968 5.98688691 14.65838681 13.24718828 17.4593811 23.95791626 C18.69662015 30.77524615 18.43311786 37.68287023 18.36328125 44.5859375 C18.35767397 46.2293102 18.35340923 47.87268797 18.35041809 49.5160675 C18.33905831 53.80522937 18.30966947 58.09407807 18.27630615 62.38311768 C18.24541213 66.77424892 18.23187177 71.16543162 18.21679688 75.55664062 C18.18478955 84.14599185 18.13209611 92.73503005 18.0703125 101.32421875 C9.4903125 101.32421875 0.9103125 101.32421875 -7.9296875 101.32421875 C-7.9390332 99.18501953 -7.94837891 97.04582031 -7.95800781 94.84179688 C-7.99186118 87.75296237 -8.04745629 80.66441642 -8.11359024 73.57581329 C-8.15300387 69.28034496 -8.18522212 64.98507975 -8.20068359 60.68945312 C-8.21589077 56.53947977 -8.25040741 52.39006506 -8.29799652 48.24034119 C-8.31276867 46.66166556 -8.32072612 45.08291016 -8.32157135 43.50416565 C-8.2430973 31.82827671 -8.2430973 31.82827671 -12.9296875 21.32421875 C-17.46508246 17.54597237 -21.87933588 17.77353128 -27.56640625 17.90234375 C-32.6945454 18.54559465 -36.66661233 20.47216142 -40.9296875 23.32421875 C-41.7868486 23.86536316 -42.6440097 24.40650757 -43.52714539 24.96405029 C-46.22115867 27.16469881 -46.22115867 27.16469881 -46.56892395 30.61456299 C-46.57558578 31.92028259 -46.58224762 33.2260022 -46.58911133 34.57128906 C-46.60483688 35.65481155 -46.60483688 35.65481155 -46.62088013 36.76022339 C-46.64961944 39.14136773 -46.64334066 41.52105713 -46.63671875 43.90234375 C-46.64983461 45.55574363 -46.6651385 47.20912748 -46.68254089 48.86248779 C-46.72241754 53.20923298 -46.732583 57.55555929 -46.73657227 61.90246582 C-46.74589876 66.34005461 -46.78330921 70.77739677 -46.81835938 75.21484375 C-46.8829626 83.91801522 -46.91358413 92.62082225 -46.9296875 101.32421875 C-55.1796875 101.32421875 -63.4296875 101.32421875 -71.9296875 101.32421875 C-71.9296875 67.66421875 -71.9296875 34.00421875 -71.9296875 -0.67578125 C-65.3296875 -0.67578125 -58.7296875 -0.67578125 -51.9296875 -0.67578125 C-48.9296875 5.32421875 -48.9296875 5.32421875 -48.9296875 9.32421875 C-48.34703125 8.87691406 -47.764375 8.42960937 -47.1640625 7.96875 C-33.76953832 -1.90865855 -16.04315697 -7.96567898 0 0 Z " fill="#333333" transform="translate(4818.9296875,1849.67578125)"/>
<path d="M0 0 C9.36002968 5.98688691 14.65838681 13.24718828 17.4593811 23.95791626 C18.69662015 30.77524615 18.43311786 37.68287023 18.36328125 44.5859375 C18.35767397 46.2293102 18.35340923 47.87268797 18.35041809 49.5160675 C18.33905831 53.80522937 18.30966947 58.09407807 18.27630615 62.38311768 C18.24541213 66.77424892 18.23187177 71.16543162 18.21679688 75.55664062 C18.18478955 84.14599185 18.13209611 92.73503005 18.0703125 101.32421875 C9.4903125 101.32421875 0.9103125 101.32421875 -7.9296875 101.32421875 C-7.9390332 99.18501953 -7.94837891 97.04582031 -7.95800781 94.84179688 C-7.99186118 87.75296237 -8.04745629 80.66441642 -8.11359024 73.57581329 C-8.15300387 69.28034496 -8.18522212 64.98507975 -8.20068359 60.68945312 C-8.21589077 56.53947977 -8.25040741 52.39006506 -8.29799652 48.24034119 C-8.31276867 46.66166556 -8.32072612 45.08291016 -8.32157135 43.50416565 C-8.2430973 31.82827671 -8.2430973 31.82827671 -12.9296875 21.32421875 C-17.46508246 17.54597237 -21.87933588 17.77353128 -27.56640625 17.90234375 C-32.6945454 18.54559465 -36.66661233 20.47216142 -40.9296875 23.32421875 C-41.7868486 23.86536316 -42.6440097 24.40650757 -43.52714539 24.96405029 C-46.22115867 27.16469881 -46.22115867 27.16469881 -46.56892395 30.61456299 C-46.57558578 31.92028259 -46.58224762 33.2260022 -46.58911133 34.57128906 C-46.60483688 35.65481155 -46.60483688 35.65481155 -46.62088013 36.76022339 C-46.64961944 39.14136773 -46.64334066 41.52105713 -46.63671875 43.90234375 C-46.64983461 45.55574363 -46.6651385 47.20912748 -46.68254089 48.86248779 C-46.72241754 53.20923298 -46.732583 57.55555929 -46.73657227 61.90246582 C-46.74589876 66.34005461 -46.78330921 70.77739677 -46.81835938 75.21484375 C-46.8829626 83.91801522 -46.91358413 92.62082225 -46.9296875 101.32421875 C-55.1796875 101.32421875 -63.4296875 101.32421875 -71.9296875 101.32421875 C-71.9296875 67.66421875 -71.9296875 34.00421875 -71.9296875 -0.67578125 C-65.3296875 -0.67578125 -58.7296875 -0.67578125 -51.9296875 -0.67578125 C-48.9296875 5.32421875 -48.9296875 5.32421875 -48.9296875 9.32421875 C-48.34703125 8.87691406 -47.764375 8.42960937 -47.1640625 7.96875 C-33.76953832 -1.90865855 -16.04315697 -7.96567898 0 0 Z " fill="#333333" transform="translate(4114.9296875,1849.67578125)"/>
<path d="M0 0 C0.97710937 -0.02449219 1.95421875 -0.04898437 2.9609375 -0.07421875 C13.21922657 -0.11514278 22.18135121 3.19388654 29.625 10.375 C39.62102815 21.79616469 40.06460905 34.14191538 39.91796875 48.63671875 C39.91236147 50.28009145 39.90809673 51.92346922 39.90510559 53.56684875 C39.89374581 57.85601062 39.86435697 62.14485932 39.83099365 66.43389893 C39.80009963 70.82503017 39.78655927 75.21621287 39.77148438 79.60742188 C39.73947711 88.19675701 39.68839058 96.78583936 39.625 105.375 C37.06071485 105.51059675 34.50364784 105.60933188 31.9375 105.6875 C31.21626953 105.72939453 30.49503906 105.77128906 29.75195312 105.81445312 C25.58853251 105.90950839 24.08475175 105.73693223 20.6875 103.0625 C18.50401807 100.21735688 17.5094746 97.83249163 16.625 94.375 C15.95855469 94.90609375 15.29210938 95.4371875 14.60546875 95.984375 C4.50088413 103.72886783 -3.3355862 106.68976393 -16 106.875 C-17.32427002 106.90303711 -17.32427002 106.90303711 -18.67529297 106.93164062 C-27.23901172 106.84845113 -34.58592891 104.02153789 -40.8671875 98.10546875 C-46.66108408 91.45599677 -47.21432806 83.70685279 -46.8203125 75.1953125 C-46.01243787 68.26459861 -43.19145563 63.84437048 -38.1875 59.125 C-25.635 49.37391631 -9.5020797 46.14945444 6.0625 46.3125 C6.88943359 46.31701172 7.71636719 46.32152344 8.56835938 46.32617188 C10.58727146 46.33784189 12.60614574 46.35577282 14.625 46.375 C14.3947175 43.85098256 14.14145793 41.33274797 13.875 38.8125 C13.813125 38.10802734 13.75125 37.40355469 13.6875 36.67773438 C13.09870537 31.35404963 11.7229547 27.77764888 8.625 23.375 C4.02955392 20.22792409 -1.95471302 19.80699165 -7.36328125 20.51171875 C-12.26057063 21.91548134 -16.74853011 24.24965077 -21.22265625 26.66723633 C-25.9648214 29.12811594 -29.02595121 30.01380171 -34.375 28.375 C-36.30078125 26.703125 -36.30078125 26.703125 -37.6875 24.625 C-38.15800781 23.94953125 -38.62851562 23.2740625 -39.11328125 22.578125 C-40.45062178 20.24295455 -41.43686409 17.89431334 -42.375 15.375 C-29.38473214 5.06972845 -16.54125312 0.02165085 0 0 Z M-18.375 69.375 C-18.973125 69.7875 -19.57125 70.2 -20.1875 70.625 C-22.20384903 73.59646172 -22.48464493 76.8732149 -22.375 80.375 C-20.66479631 84.65050923 -18.42712701 86.34322927 -14.375 88.375 C-6.3129545 89.53418012 0.68099558 88.60882017 7.625 84.375 C8.31980469 84.03210937 9.01460937 83.68921875 9.73046875 83.3359375 C12.14197455 81.8437882 13.24621481 80.88109383 14.625 78.375 C15.21319313 72.97431758 15.02962316 67.7828207 14.625 62.375 C3.07271429 61.9488911 -8.9666099 61.6552953 -18.375 69.375 Z " fill="#333333" transform="translate(4198.375,1846.625)"/>
<path d="M0 0 C0.97710938 -0.02449219 1.95421875 -0.04898437 2.9609375 -0.07421875 C13.21922657 -0.11514278 22.18135121 3.19388654 29.625 10.375 C39.62102815 21.79616469 40.06460905 34.14191538 39.91796875 48.63671875 C39.91236147 50.28009145 39.90809673 51.92346922 39.90510559 53.56684875 C39.89374581 57.85601062 39.86435697 62.14485932 39.83099365 66.43389893 C39.80009963 70.82503017 39.78655927 75.21621287 39.77148438 79.60742188 C39.73947711 88.19675701 39.68839058 96.78583936 39.625 105.375 C37.06071485 105.51059675 34.50364784 105.60933188 31.9375 105.6875 C31.21626953 105.72939453 30.49503906 105.77128906 29.75195312 105.81445312 C25.58853251 105.90950839 24.08475175 105.73693223 20.6875 103.0625 C18.50401807 100.21735688 17.5094746 97.83249163 16.625 94.375 C15.95855469 94.90609375 15.29210938 95.4371875 14.60546875 95.984375 C4.50088413 103.72886783 -3.3355862 106.68976393 -16 106.875 C-17.32427002 106.90303711 -17.32427002 106.90303711 -18.67529297 106.93164062 C-27.23901172 106.84845113 -34.58592891 104.02153789 -40.8671875 98.10546875 C-46.66108408 91.45599677 -47.21432806 83.70685279 -46.8203125 75.1953125 C-46.01243787 68.26459861 -43.19145563 63.84437048 -38.1875 59.125 C-25.635 49.37391631 -9.5020797 46.14945444 6.0625 46.3125 C6.88943359 46.31701172 7.71636719 46.32152344 8.56835938 46.32617188 C10.58727146 46.33784189 12.60614574 46.35577282 14.625 46.375 C14.3947175 43.85098256 14.14145793 41.33274797 13.875 38.8125 C13.813125 38.10802734 13.75125 37.40355469 13.6875 36.67773438 C13.09870537 31.35404963 11.7229547 27.77764888 8.625 23.375 C4.02955392 20.22792409 -1.95471302 19.80699165 -7.36328125 20.51171875 C-12.26057063 21.91548134 -16.74853011 24.24965077 -21.22265625 26.66723633 C-25.9648214 29.12811594 -29.02595121 30.01380171 -34.375 28.375 C-36.30078125 26.703125 -36.30078125 26.703125 -37.6875 24.625 C-38.15800781 23.94953125 -38.62851563 23.2740625 -39.11328125 22.578125 C-40.45062178 20.24295455 -41.43686409 17.89431334 -42.375 15.375 C-29.38473214 5.06972845 -16.54125312 0.02165085 0 0 Z M-18.375 69.375 C-18.973125 69.7875 -19.57125 70.2 -20.1875 70.625 C-22.20384903 73.59646172 -22.48464493 76.8732149 -22.375 80.375 C-20.66479631 84.65050923 -18.42712701 86.34322927 -14.375 88.375 C-6.3129545 89.53418012 0.68099558 88.60882017 7.625 84.375 C8.31980469 84.03210937 9.01460937 83.68921875 9.73046875 83.3359375 C12.14197455 81.8437882 13.24621481 80.88109383 14.625 78.375 C15.21319313 72.97431758 15.02962316 67.7828207 14.625 62.375 C3.07271429 61.9488911 -8.9666099 61.6552953 -18.375 69.375 Z " fill="#333333" transform="translate(3980.375,1846.625)"/>
<path d="M0 0 C0.97710938 -0.02449219 1.95421875 -0.04898437 2.9609375 -0.07421875 C13.21922657 -0.11514278 22.18135121 3.19388654 29.625 10.375 C39.62102815 21.79616469 40.06460905 34.14191538 39.91796875 48.63671875 C39.91236147 50.28009145 39.90809673 51.92346922 39.90510559 53.56684875 C39.89374581 57.85601062 39.86435697 62.14485932 39.83099365 66.43389893 C39.80009963 70.82503017 39.78655927 75.21621287 39.77148438 79.60742188 C39.73947711 88.19675701 39.68839058 96.78583936 39.625 105.375 C37.06071485 105.51059675 34.50364784 105.60933188 31.9375 105.6875 C31.21626953 105.72939453 30.49503906 105.77128906 29.75195312 105.81445312 C25.58853251 105.90950839 24.08475175 105.73693223 20.6875 103.0625 C18.50401807 100.21735688 17.5094746 97.83249163 16.625 94.375 C15.95855469 94.90609375 15.29210938 95.4371875 14.60546875 95.984375 C4.50088413 103.72886783 -3.3355862 106.68976393 -16 106.875 C-17.32427002 106.90303711 -17.32427002 106.90303711 -18.67529297 106.93164062 C-27.23901172 106.84845113 -34.58592891 104.02153789 -40.8671875 98.10546875 C-46.66108408 91.45599677 -47.21432806 83.70685279 -46.8203125 75.1953125 C-46.01243787 68.26459861 -43.19145563 63.84437048 -38.1875 59.125 C-25.635 49.37391631 -9.5020797 46.14945444 6.0625 46.3125 C6.88943359 46.31701172 7.71636719 46.32152344 8.56835938 46.32617188 C10.58727146 46.33784189 12.60614574 46.35577282 14.625 46.375 C14.3947175 43.85098256 14.14145793 41.33274797 13.875 38.8125 C13.813125 38.10802734 13.75125 37.40355469 13.6875 36.67773438 C13.09870537 31.35404963 11.7229547 27.77764888 8.625 23.375 C4.02955392 20.22792409 -1.95471302 19.80699165 -7.36328125 20.51171875 C-12.26057063 21.91548134 -16.74853011 24.24965077 -21.22265625 26.66723633 C-25.9648214 29.12811594 -29.02595121 30.01380171 -34.375 28.375 C-36.30078125 26.703125 -36.30078125 26.703125 -37.6875 24.625 C-38.15800781 23.94953125 -38.62851563 23.2740625 -39.11328125 22.578125 C-40.45062178 20.24295455 -41.43686409 17.89431334 -42.375 15.375 C-29.38473214 5.06972845 -16.54125312 0.02165085 0 0 Z M-18.375 69.375 C-18.973125 69.7875 -19.57125 70.2 -20.1875 70.625 C-22.20384903 73.59646172 -22.48464493 76.8732149 -22.375 80.375 C-20.66479631 84.65050923 -18.42712701 86.34322927 -14.375 88.375 C-6.3129545 89.53418012 0.68099558 88.60882017 7.625 84.375 C8.31980469 84.03210937 9.01460937 83.68921875 9.73046875 83.3359375 C12.14197455 81.8437882 13.24621481 80.88109383 14.625 78.375 C15.21319313 72.97431758 15.02962316 67.7828207 14.625 62.375 C3.07271429 61.9488911 -8.9666099 61.6552953 -18.375 69.375 Z " fill="#333333" transform="translate(3444.375,1846.625)"/>
<path d="M0 0 C4.39494061 -0.2325602 8.78830286 -0.37450074 13.1875 -0.5 C15.05631836 -0.60054687 15.05631836 -0.60054687 16.96289062 -0.703125 C18.7659668 -0.74179688 18.7659668 -0.74179688 20.60546875 -0.78125 C21.71043701 -0.82314453 22.81540527 -0.86503906 23.95385742 -0.90820312 C27.99235223 0.29586842 28.86748116 2.03053912 30.84785461 5.62692261 C32.82274229 9.69460483 34.58081193 13.81785521 36.25 18.01953125 C36.6305957 18.95874924 37.01119141 19.89796722 37.40332031 20.86564636 C38.60932489 23.84511889 39.80515762 26.82853583 41 29.8125 C42.19664369 32.7849881 43.3954802 35.75656865 44.59667969 38.72721863 C45.33996209 40.56706481 46.08041613 42.40805741 46.81738281 44.2504425 C49.36713255 50.58490232 52.13163265 56.80363502 55 63 C55.22693039 62.41277161 55.45386078 61.82554321 55.68766785 61.22052002 C58.07090672 55.05432627 60.4563495 48.88898833 62.84301758 42.72412109 C63.73094176 40.42973921 64.61832219 38.13514681 65.50512695 35.84033203 C66.78710914 32.5231941 68.07110887 29.20684293 69.35546875 25.890625 C69.74526413 24.88074524 70.13505951 23.87086548 70.53666687 22.8303833 C71.67971965 19.88230707 72.83767289 16.94052516 74 14 C74.42769684 12.89813354 74.85539368 11.79626709 75.29605103 10.66101074 C75.72727264 9.57888306 76.15849426 8.49675537 76.6027832 7.38183594 C76.99013138 6.39858337 77.37747955 5.41533081 77.77656555 4.40228271 C79 2 79 2 82 0 C84.54370117 -0.22705078 84.54370117 -0.22705078 87.54296875 -0.1953125 C89.15268555 -0.18564453 89.15268555 -0.18564453 90.79492188 -0.17578125 C92.47424805 -0.15064453 92.47424805 -0.15064453 94.1875 -0.125 C95.31865234 -0.11597656 96.44980469 -0.10695313 97.61523438 -0.09765625 C100.41036828 -0.07406862 103.20507845 -0.041153 106 0 C103.87694672 6.83560018 101.22753073 13.34417768 98.34375 19.890625 C97.88889221 20.93250977 97.43403442 21.97439453 96.96539307 23.04785156 C95.98820127 25.28587332 95.00941388 27.52319895 94.0291748 29.7598877 C91.4217532 35.71093671 88.82732894 41.66763558 86.234375 47.625 C85.70869934 48.83254944 85.18302368 50.04009888 84.64141846 51.28424072 C79.59179353 62.90358345 74.65734825 74.57001297 69.75 86.25 C59.60084006 110.37700262 59.60084006 110.37700262 54.5 122.0625 C54.07299805 123.04959961 53.64599609 124.03669922 53.20605469 125.05371094 C52.81836914 125.93446289 52.43068359 126.81521484 52.03125 127.72265625 C51.70705078 128.46265869 51.38285156 129.20266113 51.04882812 129.96508789 C49.84777614 132.29534122 48.85104339 134.1234034 47 136 C44.36450195 136.45410156 44.36450195 136.45410156 41.23828125 136.390625 C40.12001953 136.37773438 39.00175781 136.36484375 37.84960938 136.3515625 C36.09874023 136.30128906 36.09874023 136.30128906 34.3125 136.25 C33.13365234 136.23195313 31.95480469 136.21390625 30.74023438 136.1953125 C27.82601074 136.14811859 24.91340969 136.08229077 22 136 C23.30891979 133.06089286 24.62295925 130.12409687 25.9375 127.1875 C26.33630371 126.29200439 26.73510742 125.39650879 27.14599609 124.47387695 C29.22559433 119.83280252 31.35605868 115.2335308 33.63671875 110.6875 C34.26235718 109.42643433 34.26235718 109.42643433 34.90063477 108.13989258 C35.7001313 106.53850819 36.5138644 104.94413088 37.34350586 103.3581543 C39.78263007 98.44045183 40.58301744 95.4686057 39 90 C37.38510908 85.90447482 35.54651008 81.92714609 33.6875 77.9375 C32.50735752 75.36324859 31.33554854 72.78523163 30.1640625 70.20703125 C29.84403763 69.50443176 29.52401276 68.80183228 29.19429016 68.07794189 C24.99070935 58.82271106 20.94155429 49.49961504 16.88955688 40.17727661 C15.5890681 37.18610754 14.28519954 34.19642747 12.98120117 31.20678711 C8.48204903 20.86872119 4.09681251 10.50480507 0 0 Z " fill="#333333" transform="translate(3038,1848)"/>
<path d="M0 0 C9.24 0 18.48 0 28 0 C28 40.59 28 81.18 28 123 C47.14 123 66.28 123 86 123 C86 130.26 86 137.52 86 145 C57.62 145 29.24 145 0 145 C0 97.15 0 49.3 0 0 Z " fill="#333333" transform="translate(3197,1806)"/>
<path d="M0 0 C0.93650391 0.00064453 1.87300781 0.00128906 2.83789062 0.00195312 C6.84323055 0.02768336 10.44187023 0.07550506 14.3125 1.1875 C14.1988485 3.81344784 14.07210946 6.43761547 13.9375 9.0625 C13.9065625 9.80886719 13.875625 10.55523438 13.84375 11.32421875 C13.5390625 16.9609375 13.5390625 16.9609375 11.3125 19.1875 C8.8837982 19.55354836 6.50459234 19.84219608 4.0625 20.0625 C-1.65518492 20.59358931 -5.19842273 21.5188633 -9.6875 25.1875 C-13.24226539 32.05187454 -13.00313622 36.97513458 -13.6875 45.1875 C-4.7775 45.1875 4.1325 45.1875 13.3125 45.1875 C13.3125 51.1275 13.3125 57.0675 13.3125 63.1875 C4.7325 63.1875 -3.8475 63.1875 -12.6875 63.1875 C-12.6875 90.9075 -12.6875 118.6275 -12.6875 147.1875 C-21.2675 147.1875 -29.8475 147.1875 -38.6875 147.1875 C-39.0175 119.7975 -39.3475 92.4075 -39.6875 64.1875 C-43.6475 63.1975 -47.6075 62.2075 -51.6875 61.1875 C-53.6875 59.1875 -53.6875 59.1875 -53.8828125 55.9296875 C-53.81770833 52.34895833 -53.75260417 48.76822917 -53.6875 45.1875 C-48.7375 45.1875 -43.7875 45.1875 -38.6875 45.1875 C-38.77 42.980625 -38.8525 40.77375 -38.9375 38.5 C-39.05406698 27.95934427 -36.73383463 18.28692283 -29.7421875 10.125 C-21.0673122 1.94488945 -11.5754001 -0.15326314 0 0 Z " fill="#333333" transform="translate(3023.6875,1803.8125)"/>
<path d="M0 0 C3.89543877 -0.14553599 7.79017651 -0.23415059 11.6875 -0.3125 C13.34168945 -0.3753418 13.34168945 -0.3753418 15.02929688 -0.43945312 C16.6293457 -0.46362305 16.6293457 -0.46362305 18.26171875 -0.48828125 C19.24100342 -0.51446533 20.22028809 -0.54064941 21.22924805 -0.56762695 C25.22501393 0.25096109 26.50470091 1.79179498 29 5 C30.49758753 8.0159579 31.60706602 11.12524734 32.70703125 14.3046875 C33.03394455 15.21334564 33.36085785 16.12200378 33.69767761 17.05819702 C34.74956893 19.99247694 35.7812715 22.93340217 36.8125 25.875 C37.52682364 27.88030038 38.24231964 29.88518354 38.95898438 31.88964844 C40.99107443 37.58668026 42.99806712 43.29231543 45 49 C45.50678254 50.43985474 46.01375997 51.87964092 46.52099609 53.31933594 C48.70852693 59.53687394 50.87378184 65.7612283 53 72 C53.25579834 71.13648926 53.51159668 70.27297852 53.77514648 69.38330078 C57.38567839 57.49936245 61.56594245 45.84427835 65.84790039 34.1875 C67.07188171 30.84941385 68.28316086 27.50688392 69.49414062 24.1640625 C70.27787824 22.02315634 71.06235657 19.88252117 71.84765625 17.7421875 C72.38375267 16.2562056 72.38375267 16.2562056 72.93067932 14.74020386 C74.9183112 9.37185469 76.86879714 4.13120286 81 0 C82.78071246 -0.08726223 84.5648314 -0.10699041 86.34765625 -0.09765625 C87.42724609 -0.09443359 88.50683594 -0.09121094 89.61914062 -0.08789062 C91.32360352 -0.07532227 91.32360352 -0.07532227 93.0625 -0.0625 C94.77276367 -0.05573242 94.77276367 -0.05573242 96.51757812 -0.04882812 C99.34510351 -0.03699747 102.1725264 -0.0205141 105 0 C102.72431621 7.05040891 100.13767421 13.93645218 97.421875 20.828125 C96.75586525 22.52548042 96.75586525 22.52548042 96.07640076 24.25712585 C94.88292625 27.29622498 93.68721833 30.3344307 92.48998642 33.37205124 C91.74823311 35.25448405 91.00726485 37.13722413 90.26651001 39.02005005 C83.97128657 55.01836699 77.63688938 71.00059263 71.1875 86.9375 C70.87171997 87.71975952 70.55593994 88.50201904 70.23059082 89.3079834 C69.35860025 91.4656911 68.48290003 93.62184374 67.60546875 95.77734375 C66.88073364 97.55999634 66.88073364 97.55999634 66.14135742 99.37866211 C65 102 65 102 64 103 C62.21928754 103.08726223 60.4351686 103.10699041 58.65234375 103.09765625 C57.57275391 103.09443359 56.49316406 103.09121094 55.38085938 103.08789062 C54.24455078 103.07951172 53.10824219 103.07113281 51.9375 103.0625 C50.79732422 103.05798828 49.65714844 103.05347656 48.48242188 103.04882812 C45.65489649 103.03699747 42.8274736 103.0205141 40 103 C34.92727085 90.31074588 29.85914586 77.61966373 24.79690647 64.92622089 C22.44621646 59.03234372 20.09393936 53.13911035 17.73803711 47.24731445 C15.46494172 41.56243835 13.19601298 35.87591584 10.92997551 30.18822289 C10.06428454 28.01749582 9.19708854 25.84736835 8.32837105 23.67785072 C7.11280375 20.64137632 5.90258296 17.60282293 4.69360352 14.5637207 C4.15197823 13.21612671 4.15197823 13.21612671 3.59941101 11.84130859 C3.26988434 11.00984818 2.94035767 10.17838776 2.60084534 9.32173157 C2.31416772 8.60365483 2.0274901 7.8855781 1.73212528 7.14574146 C0.92726347 4.78682092 0.43960612 2.45100894 0 0 Z " fill="#333333" transform="translate(3492,1848)"/>
<path d="M0 0 C5.28 0 10.56 0 16 0 C16 10.89 16 21.78 16 33 C24.91 33 33.82 33 43 33 C43 38.94 43 44.88 43 51 C34.09 51 25.18 51 16 51 C16.09703877 58.8473723 16.19983874 66.6942295 16.31738281 74.54125977 C16.35667589 77.20954337 16.39047621 79.8777358 16.421875 82.54614258 C16.46765212 86.38641382 16.52562699 90.2263391 16.5859375 94.06640625 C16.59748871 95.25520889 16.60903992 96.44401154 16.62094116 97.6688385 C16.72391534 103.47649326 17.01696395 108.52055827 19 114 C20.58294782 114.05437607 22.16644256 114.09296271 23.75 114.125 C24.63171875 114.14820313 25.5134375 114.17140625 26.421875 114.1953125 C28.998686 114.17336291 28.998686 114.17336291 31.015625 112.9296875 C33 112 33 112 35.515625 112.078125 C38.79828549 113.29621914 39.81767874 114.8600682 41.75 117.75 C42.34296875 118.61109375 42.9359375 119.4721875 43.546875 120.359375 C44.98642668 122.97533451 45.5981276 125.05998612 46 128 C44.86300618 128.78381318 43.71464876 129.55113854 42.5625 130.3125 C41.92441406 130.74175781 41.28632813 131.17101563 40.62890625 131.61328125 C33.61946041 135.31068582 26.94014001 136.56053902 19.0625 136.5 C17.74644775 136.49033203 17.74644775 136.49033203 16.40380859 136.48046875 C8.55333344 136.25862971 2.80248797 134.83457647 -2.8515625 129.1328125 C-7.75090301 123.16536932 -9.2570071 116.92232126 -9.22705078 109.23852539 C-9.22682419 107.28729515 -9.22682419 107.28729515 -9.22659302 105.29664612 C-9.21638281 103.89698123 -9.20595087 102.49731795 -9.1953125 101.09765625 C-9.19157733 99.65034685 -9.18873274 98.20303489 -9.18673706 96.75572205 C-9.17914024 92.96634813 -9.15952625 89.17713015 -9.1373291 85.38781738 C-9.11678503 81.51312366 -9.10771712 77.63840449 -9.09765625 73.76367188 C-9.07627614 66.17570229 -9.04112679 58.58789296 -9 51 C-13.62 51 -18.24 51 -23 51 C-25.05279359 46.89441282 -25.2216942 45.19793315 -25.125 40.75 C-25.10695312 39.67234375 -25.08890625 38.5946875 -25.0703125 37.484375 C-25.04710938 36.66453125 -25.02390625 35.8446875 -25 35 C-13.47835991 32.70387244 -13.47835991 32.70387244 -8 33 C-7.81050781 31.10894531 -7.81050781 31.10894531 -7.6171875 29.1796875 C-7.0147221 23.78286585 -6.11271398 18.46317939 -5.125 13.125 C-4.96386719 12.18914062 -4.80273438 11.25328125 -4.63671875 10.2890625 C-4.47042969 9.391875 -4.30414063 8.4946875 -4.1328125 7.5703125 C-3.98730957 6.76352051 -3.84180664 5.95672852 -3.69189453 5.12548828 C-3 3 -3 3 0 0 Z " fill="#333333" transform="translate(4876,1817)"/>
<path d="M0 0 C8.58 0 17.16 0 26 0 C26 48.84 26 97.68 26 148 C17.42 148 8.84 148 0 148 C0 99.16 0 50.32 0 0 Z " fill="#333333" transform="translate(2874,1803)"/>
<path d="M0 0 C8.58 0 17.16 0 26 0 C26 33.66 26 67.32 26 102 C17.42 102 8.84 102 0 102 C0 68.34 0 34.68 0 0 Z " fill="#333333" transform="translate(2928,1849)"/>
<path d="M0 0 C8.58 0 17.16 0 26 0 C26 33.66 26 67.32 26 102 C17.42 102 8.84 102 0 102 C0 68.34 0 34.68 0 0 Z " fill="#333333" transform="translate(2538,1849)"/>
<path d="M0 0 C3.5 1.6875 3.5 1.6875 6 4 C6.763125 4.70125 7.52625 5.4025 8.3125 6.125 C10.76137675 10.29716038 11.18522523 14.1995795 11 19 C9.30229234 24.2928533 6.3274841 26.77740545 2 30 C-2.2150656 32.1075328 -7.42250022 31.51511506 -12 31 C-16.17081235 29.31423612 -18.41572431 26.84814213 -20.9375 23.1875 C-22.81854225 17.54437326 -22.7620472 13.12335311 -20.375 7.75 C-15.68392695 -0.4674659 -8.81523394 -1.19877495 0 0 Z " fill="#333333" transform="translate(2947,1803)"/>
<path d="M0 0 C3.5 1.6875 3.5 1.6875 6 4 C6.763125 4.70125 7.52625 5.4025 8.3125 6.125 C10.76137675 10.29716038 11.18522523 14.1995795 11 19 C9.30229234 24.2928533 6.3274841 26.77740545 2 30 C-2.2150656 32.1075328 -7.42250022 31.51511506 -12 31 C-16.17081235 29.31423612 -18.41572431 26.84814213 -20.9375 23.1875 C-22.81854225 17.54437326 -22.7620472 13.12335311 -20.375 7.75 C-15.68392695 -0.4674659 -8.81523394 -1.19877495 0 0 Z " fill="#333333" transform="translate(2557,1803)"/>
<path d="M0 0 C0.66 0 1.32 0 2 0 C4.55588921 4.79229228 4.58248228 9.70700886 4 15 C2.5 18.625 2.5 18.625 1 21 C0.67 21 0.34 21 0 21 C0 14.07 0 7.14 0 0 Z " fill="#F5FCFD" transform="translate(902,1528)"/>
</svg>
